<?xml version="1.0" encoding="utf-8"?><svg viewBox="0 0 431 184" xmlns="http://www.w3.org/2000/svg" xmlns:xlink="http://www.w3.org/1999/xlink"><style>:root>svg{display:none}:root>svg:target{display:block}</style><svg version="1.1" id="logo" x="0" y="0" viewBox="0 0 431 184" xml:space="preserve" xmlns="http://www.w3.org/2000/svg"><style>.ast0{fill:#ee7601}.ast1{fill:#fff}</style><path class="ast0" d="M339 0H92C41.19 0 0 41.19 0 92v92h339c50.81 0 92-41.19 92-92S389.81 0 339 0z"/><path class="ast1" d="M100.51 108.74c.86.15 1.49.9 1.49 1.77v20.48c-.33.01-.67.01-1 .01-5.33 0-10.4-1.09-15-3.07-13.53-5.82-23-19.27-23-34.93V55.81c0-1 .81-1.81 1.81-1.81h19.38c1 0 1.81.81 1.81 1.81V91.5c0 8.64 6.27 15.82 14.51 17.24z"/><path class="ast1" d="M138.5 54.5C117.24 54.5 100 71.74 100 93s17.24 38.5 38.5 38.5S177 114.26 177 93s-17.24-38.5-38.5-38.5zm0 55c-9.11 0-16.5-7.39-16.5-16.5s7.39-16.5 16.5-16.5S155 83.89 155 93s-7.39 16.5-16.5 16.5zM298.5 54.5C277.24 54.5 260 71.74 260 93s17.24 38.5 38.5 38.5S337 114.26 337 93s-17.24-38.5-38.5-38.5zm0 55c-9.11 0-16.5-7.39-16.5-16.5s7.39-16.5 16.5-16.5S315 83.89 315 93s-7.39 16.5-16.5 16.5zM257 93c0-21.54-17.69-38.95-39.33-38.49-19.53.41-35.91 15.73-37.53 35.2-.6 7.15.77 13.95 3.62 19.89a38.62 38.62 0 0017.41 17.79c.02.01.03.01.05.02 5.2 2.62 11.07 4.09 17.28 4.09 5.81 0 11.32-1.29 16.25-3.59-1.38 8-8.35 14.09-16.75 14.09-6.5 0-12.15-3.65-15.01-9.01-1.39-2.62-4.73-3.46-7.14-1.74l-11.78 8.41c-.68.49-.95 1.4-.59 2.16C189.56 154.9 202.95 164 218.5 164c19.89 0 36.27-14.89 38.29-34 .14-1.32.21-2.65.21-4V93zm-33.78 15.81c-1.5.45-3.08.69-4.72.69-1.82 0-3.57-.29-5.2-.84-6.56-2.18-11.3-8.37-11.3-15.66 0-.46.02-.92.06-1.37.69-8.47 7.79-15.13 16.44-15.13s15.75 6.66 16.44 15.13c.04.45.06.91.06 1.37 0 7.47-4.97 13.79-11.78 15.81zM366 122c0 7.73-6.27 14-14 14s-14-6.27-14-14 6.27-14 14-14 14 6.27 14 14zm-3-68h-23v29c0 12.7 10.3 23 23 23V54z"/></svg></svg>